<svg width="27" height="42" viewBox="0 0 27 42" fill="none" xmlns="http://www.w3.org/2000/svg">
<g id="Group">
<g id="Group 84">
<path id="Vector" d="M17.2429 24.6799C18.9819 23.6641 20.3243 22.0405 20.9765 20.1024C21.0054 20.1031 21.0342 20.1046 21.0631 20.1046C22.8312 20.1046 24.2697 18.6661 24.2697 16.898C24.2697 15.2477 23.0163 13.8851 21.4116 13.7107V12.3202C22 11.7277 23.4326 9.90755 23.1417 6.45078C23.0237 5.04887 22.506 3.95606 21.6029 3.20261C20.4451 2.2367 18.9885 2.13383 18.3686 2.13531C17.604 1.42082 14.8471 -0.799833 11.12 0.300854C10.3993 0.513806 9.71005 0.791972 9.0132 1.15135C8.71059 1.30745 8.59181 1.67913 8.74783 1.98166C8.90394 2.28419 9.27562 2.40305 9.57815 2.24703C10.2052 1.92367 10.8238 1.67372 11.4691 1.48316C15.0405 0.428166 17.5694 3.06898 17.6742 3.18087C17.8041 3.32065 17.9936 3.39226 18.1832 3.37528C18.1984 3.37372 19.7395 3.2474 20.8204 4.15548C21.4565 4.68991 21.8242 5.49701 21.9131 6.5543C22.1363 9.20676 21.218 10.6706 20.7185 11.2579C19.4894 10.3033 18.3782 8.32542 18.3661 8.30368C18.151 7.8818 17.4881 7.88902 17.2816 8.31706C16.3799 10.0368 14.7229 10.7199 13.7753 10.9789C13.6736 9.6608 12.8331 8.61499 12.7898 8.562C12.5617 8.26833 12.0812 8.26185 11.8457 8.5492C9.24871 11.5592 5.8597 11.5628 5.48244 11.5541C5.40648 11.5522 5.33035 11.5396 5.2562 11.517C4.18356 11.1886 3.12053 10.2458 2.42606 9.52405C4.72849 9.12727 5.57341 7.53588 5.61377 7.45721C5.83435 7.05928 5.4995 6.53149 5.04677 6.55979C4.04748 6.59072 3.34037 6.22207 2.88674 5.43483C2.77313 5.23771 2.68962 5.03681 2.62851 4.85339C4.83899 4.96266 6.1943 4.27229 7.4876 3.48652C7.77856 3.30974 7.87109 2.93059 7.69431 2.63971C7.51762 2.34875 7.13847 2.25622 6.84751 2.433C5.54208 3.22623 4.27117 3.85803 1.93174 3.55288C1.55907 3.4948 1.20273 3.82932 1.23702 4.20486C1.23948 4.24218 1.3033 5.12934 1.79294 6.00486C2.14371 6.63223 2.75902 7.34229 3.8127 7.6449C3.11807 8.1639 2.22713 8.41049 1.16196 8.37735C0.659527 8.3456 0.334439 8.97707 0.6528 9.36721C0.732042 9.47123 2.54951 11.8294 4.64261 12.609V13.7109C3.03792 13.8852 1.78458 15.2479 1.78458 16.8982C1.78458 18.6663 3.22307 20.1048 4.99116 20.1048C5.02003 20.1048 5.04891 20.1033 5.07778 20.1026C5.72984 22.0407 7.07227 23.6643 8.81132 24.68C3.84248 25.354 0 29.6235 0 34.7742V36.0547C0 36.3952 0.275951 36.6711 0.616378 36.6711C0.956806 36.6711 1.23276 36.3952 1.23276 36.0547V34.7742C1.23276 32.3707 2.1848 30.1856 3.73125 28.5755L11.6587 37.2984C12.3543 38.098 13.7 38.098 14.3956 37.2984L16.9865 34.4475C17.2155 34.1956 17.1968 33.8058 16.9449 33.5768C16.6931 33.3478 16.3032 33.3665 16.0742 33.6184L13.4833 36.4693C13.2518 36.7367 12.8024 36.7367 12.571 36.4693L4.64392 27.7468C5.0028 27.463 5.38392 27.2064 5.78407 26.9795L12.5711 34.4476C12.8029 34.7143 13.2516 34.7142 13.4834 34.4476L20.2704 26.9795C20.6706 27.2065 21.0517 27.4631 21.4106 27.7468L17.7334 31.793C17.5044 32.0449 17.5231 32.4347 17.775 32.6637C18.0262 32.8921 18.4162 32.8746 18.6457 32.6221L22.3231 28.5756C23.8696 30.1857 24.8216 32.3708 24.8216 34.7743V40.7672H21.1514V35.9575C21.1514 35.6171 20.8755 35.3412 20.5351 35.3412C20.1946 35.3412 19.9187 35.6171 19.9187 35.9575V40.7672H6.13565V35.9575C6.13565 35.6171 5.8597 35.3412 5.51927 35.3412C5.17884 35.3412 4.90289 35.6171 4.90289 35.9575V40.7672H1.23276V38.5203C1.23276 38.1799 0.956806 37.904 0.616378 37.904C0.275951 37.904 0 38.1799 0 38.5203V41.3836C0 41.724 0.275951 42 0.616378 42H25.438C25.7784 42 26.0543 41.724 26.0543 41.3836V34.7743C26.0543 29.6234 22.2118 25.3538 17.2429 24.6799ZM13.9743 27.3688H12.08L11.7302 25.8194H14.324L13.9743 27.3688ZM23.0368 16.898C23.0368 17.9096 22.2719 18.7454 21.2902 18.8584C21.3696 18.3956 21.4116 17.9201 21.4116 17.4349V14.9556C22.3342 15.1208 23.0368 15.9286 23.0368 16.898ZM3.01742 16.898C3.01742 15.9287 3.72009 15.1208 4.64269 14.9556V17.4349C4.64269 17.9201 4.68461 18.3956 4.7641 18.8584C3.78235 18.7453 3.01742 17.9096 3.01742 16.898ZM5.87536 17.4349V12.7781C6.96867 12.7218 9.80127 12.3367 12.2154 9.95718C12.4334 10.3933 12.6408 11.0063 12.5149 11.6153C12.4754 11.8068 12.529 12.0057 12.6595 12.1514C12.7901 12.297 12.9819 12.3715 13.1766 12.3537C13.3069 12.3414 16.0791 12.0518 17.8193 9.76203C18.3474 10.558 19.2156 11.7135 20.1788 12.3876V17.4349C20.1788 21.3784 16.9705 24.5866 13.027 24.5866C9.08358 24.5866 5.87536 21.3784 5.87536 17.4349ZM10.1874 25.8194H10.4664L10.9582 27.9983L10.5264 30.3649L6.94701 26.4263C7.95246 26.0347 9.04519 25.8194 10.1874 25.8194ZM13.0271 33.1163L11.5702 31.5131L12.1014 28.6015H13.9529L14.4842 31.5131L13.0271 33.1163ZM15.5278 30.3649L15.0959 27.9983L15.5878 25.8194H15.8668C17.009 25.8194 18.1017 26.0347 19.1071 26.4263L15.5278 30.3649Z" fill="#408B0E"/>
<path id="Vector_2" d="M13.0272 21.3919C15.2143 21.3919 15.8755 19.8549 15.9043 19.7851C15.9044 19.785 15.9045 19.7848 15.9046 19.7846C16.0788 19.3931 15.769 18.9207 15.3375 18.9304C15.0811 18.9304 14.8615 19.0873 14.7691 19.3102C14.738 19.3761 14.3387 20.1615 13.0272 20.1615C11.7161 20.1615 11.3166 19.3764 11.2853 19.3102C11.1928 19.0873 10.9732 18.9304 10.7169 18.9304C10.2853 18.9207 9.97564 19.3932 10.1499 19.7846C10.15 19.7847 10.15 19.785 10.1501 19.7851C10.1788 19.8549 10.8401 21.3919 13.0272 21.3919Z" fill="#408B0E"/>
<path id="Vector_3" d="M9.27026 14.4415C8.93049 14.4415 8.65503 14.7169 8.65503 15.0567V16.7949C8.65503 17.1347 8.93049 17.4102 9.27026 17.4102C9.61003 17.4102 9.88549 17.1347 9.88549 16.7949V15.0567C9.88549 14.7169 9.61003 14.4415 9.27026 14.4415Z" fill="#408B0E"/>
<path id="Vector_4" d="M16.7841 17.4102C17.1238 17.4102 17.3993 17.1348 17.3993 16.795V15.0568C17.3993 14.717 17.1238 14.4415 16.7841 14.4415C16.4443 14.4415 16.1688 14.717 16.1688 15.0568V16.795C16.1688 17.1348 16.4443 17.4102 16.7841 17.4102Z" fill="#408B0E"/>
</g>
</g>
</svg>
