<svg width="45" height="45" viewBox="0 0 45 45" fill="none" xmlns="http://www.w3.org/2000/svg">
<g id="reading 1">
<g id="Group">
<g id="Group_2">
<path id="Vector" d="M36.2739 29.7226V25.038L34.2969 25.8072L34.2911 25.7941L34.244 25.7086C33.4865 24.5291 32.2613 23.7085 30.8817 23.4584L26.1247 22.5928V22.2173C27.9037 21.1842 29.2064 19.4219 29.6124 17.3384C30.9303 17.0658 31.9242 15.8965 31.9242 14.4988V7.33858C31.9242 5.31527 30.599 3.55076 28.6765 2.97661L28.314 2.61414C26.6278 0.927925 24.3863 0 22.0019 0C17.0803 0 13.0757 4.00385 13.0757 8.9262V14.4988C13.0757 15.8965 14.0696 17.0658 15.3876 17.3384C15.7943 19.4219 17.0963 21.185 18.8753 22.2173V22.5928L14.1189 23.4576C12.7408 23.7078 11.5164 24.5269 10.7581 25.7057L10.7146 25.8115L8.72609 25.038V29.7226C7.52704 29.7226 6.55127 30.6984 6.55127 31.8974V34.7972C6.55127 35.9962 7.52704 36.972 8.72609 36.972V39.6427L22.5 45L36.2739 39.6427V36.972C37.4729 36.972 38.4487 35.9962 38.4487 34.7972V31.8974C38.4487 30.6984 37.4729 29.7226 36.2739 29.7226ZM27.4832 24.3138L30.6222 24.8843C31.5465 25.0525 32.365 25.5861 32.9109 26.3458L25.897 29.073L27.4832 24.3138ZM20.3868 22.882C21.0559 23.0865 21.7649 23.1981 22.5 23.1981C23.2351 23.1981 23.9441 23.0865 24.6132 22.882L22.5 24.4668L20.3868 22.882ZM21.3966 25.4512L19.917 26.9301L18.9572 24.0514L19.419 23.968L21.3966 25.4512ZM25.581 23.9687L26.0428 24.0521L25.0829 26.9308L23.6033 25.452L25.581 23.9687ZM29.7494 15.7472V13.2505C30.1807 13.502 30.4743 13.9645 30.4743 14.4988C30.4743 15.0331 30.1807 15.4956 29.7494 15.7472ZM15.2506 15.7472C14.8192 15.4956 14.5256 15.0331 14.5256 14.4988C14.5256 13.9645 14.8192 13.502 15.2506 13.2505V15.7472ZM15.2506 10.8741V11.702C14.9925 11.7694 14.7504 11.8709 14.5256 12.0021V8.9262C14.5256 4.80419 17.8792 1.44988 22.0019 1.44988C23.9984 1.44988 25.8768 2.22774 27.2889 3.63993L27.9283 4.28005L28.1233 4.3279C29.508 4.6737 30.4743 5.9119 30.4743 7.33858V12.0021C30.2496 11.8709 30.0075 11.7687 29.7494 11.702V10.8741H27.4506C25.486 10.8741 23.6084 9.93604 22.4304 8.3651L21.8541 7.59521L20.4136 9.03639C19.2276 10.2217 17.6516 10.8741 15.9755 10.8741H15.2506ZM16.7004 15.9487V12.2907C18.4903 12.1246 20.1512 11.3482 21.4387 10.0615L21.7207 9.77946C23.1742 11.3838 25.2678 12.324 27.4506 12.324H28.2995V15.9487C28.2995 19.1464 25.6977 21.7482 22.5 21.7482C19.3023 21.7482 16.7004 19.1464 16.7004 15.9487ZM14.3777 24.8843L17.5167 24.3138L19.1029 29.073L12.0876 26.3451C12.6335 25.5846 13.4534 25.0525 14.3777 24.8843ZM8.00115 34.7972V31.8974C8.00115 31.4972 8.32665 31.1725 8.72609 31.1725C9.92515 31.1725 10.9009 32.1482 10.9009 33.3473C10.9009 34.5463 9.92515 35.5221 8.72609 35.5221C8.32665 35.5221 8.00115 35.1973 8.00115 34.7972ZM21.775 43.1615L10.176 38.6517V36.6646C11.454 36.1035 12.3508 34.8298 12.3508 33.3473C12.3508 31.8648 11.454 30.5911 10.176 30.03V27.1577L21.775 31.6683V43.1615ZM19.6227 29.276L22.5 26.398L25.3773 29.2753L22.5 30.3946L19.6227 29.276ZM34.824 38.651L23.2249 43.1608V31.6683L34.824 27.1577V30.03C33.5459 30.5911 32.6492 31.8648 32.6492 33.3473C32.6492 34.8298 33.5459 36.1035 34.824 36.6646V38.651ZM36.9988 34.7972C36.9988 35.1973 36.6733 35.5221 36.2739 35.5221C35.0748 35.5221 34.099 34.5463 34.099 33.3473C34.099 32.1482 35.0748 31.1725 36.2739 31.1725C36.6733 31.1725 36.9988 31.4972 36.9988 31.8974V34.7972Z" fill="#0916A3"/>
</g>
</g>
</g>
</svg>
