<svg width="44" height="36" viewBox="0 0 44 36" fill="none" xmlns="http://www.w3.org/2000/svg">
<path id="Vector" d="M43.5794 8.17872L29.6656 2.87588C29.3282 2.74735 28.9505 2.91649 28.822 3.25341C28.6934 3.59067 28.8626 3.96819 29.2 4.09672L41.5122 8.78914L32.9889 12.0379L22.2696 7.18607C21.9406 7.03708 21.5535 7.18305 21.4048 7.51159C21.2558 7.84045 21.4018 8.22738 21.7304 8.37638L31.2685 12.6936L22 16.2259L2.48782 8.78914L22 1.35235L26.8085 3.18529C27.1452 3.31348 27.5232 3.14468 27.6521 2.80742C27.7806 2.4705 27.6115 2.09297 27.2741 1.96444L22.233 0.0429124C22.0829 -0.0141362 21.9171 -0.0144718 21.767 0.0429124L0.420624 8.17872C0.167511 8.27537 0 8.51833 0 8.78914V11.7724C0 12.0433 0.167511 12.2862 0.420624 12.3829L7.08649 14.9232V17.187C7.08649 17.5478 7.37888 17.8404 7.73975 17.8404C8.10095 17.8404 8.39334 17.5478 8.39334 17.187V15.4215L21.767 20.5187C21.8422 20.5472 21.9211 20.5616 22 20.5616C22.0789 20.5616 22.1578 20.5472 22.233 20.5187L32.3138 16.6766V27.0152C29.1489 28.676 25.6 29.5659 22 29.5659C17.0868 29.5659 12.2676 27.9102 8.39334 24.897V19.8002C8.39334 19.4394 8.10095 19.1468 7.73975 19.1468C7.37888 19.1468 7.08649 19.4394 7.08649 19.8002V25.2134C7.08649 25.4118 7.17645 25.5994 7.33121 25.7232C11.4774 29.0438 16.687 30.8723 22 30.8723C25.5832 30.8723 29.1187 30.0394 32.3138 28.4793V31.1233C31.2608 31.4109 30.4843 32.3751 30.4843 33.5177C30.4843 34.8862 31.5981 36 32.9671 36C34.3364 36 35.4502 34.8862 35.4502 33.5177C35.4502 32.3751 34.6738 31.4109 33.6207 31.1233V27.7894C34.6859 27.1836 35.7064 26.4944 36.6691 25.7232C36.8239 25.5994 36.9142 25.4118 36.9142 25.2134V14.9229L43.5794 12.3825C43.8325 12.2862 44 12.0433 44 11.7721V8.78914C44 8.51833 43.8325 8.27537 43.5794 8.17872ZM34.1434 33.5177C34.1434 34.1657 33.6157 34.6932 32.9671 34.6932C32.3189 34.6932 31.7912 34.1657 31.7912 33.5177C31.7912 32.8694 32.3189 32.3418 32.9671 32.3418C33.6157 32.3418 34.1434 32.8694 34.1434 33.5177ZM1.30685 9.73749L21.3464 17.3753V18.9599L1.30685 11.3221V9.73749ZM22.6536 18.9599V17.3753L32.3138 13.6933V15.2783L22.6536 18.9599ZM35.607 24.8967C34.9695 25.3926 34.3058 25.851 33.6207 26.2719V16.1783L35.607 15.4212V24.8967ZM33.6207 14.7799V13.1953L42.6931 9.73749V11.3221L33.6207 14.7799Z" fill="#C98200"/>
</svg>
